<svg width="8" height="8" viewBox="0 0 8 8" fill="none" xmlns="http://www.w3.org/2000/svg">
<path d="M6.82842 1.17156C6.07292 0.416078 5.06844 0 4 0C2.93155 0 1.92705 0.416078 1.17156 1.17156C0.416063 1.92706 0 2.93156 0 4C0 5.06844 0.416063 6.07292 1.17156 6.82842C1.92706 7.58392 2.93155 8 4 8C5.06844 8 6.07292 7.58392 6.82842 6.82842C7.58392 6.07292 8 5.06844 8 4C8 2.93156 7.58392 1.92708 6.82842 1.17156ZM4 7.53125C2.05286 7.53125 0.46875 5.94714 0.46875 4C0.46875 2.05286 2.05286 0.46875 4 0.46875C5.94714 0.46875 7.53125 2.05286 7.53125 4C7.53125 5.94714 5.94714 7.53125 4 7.53125Z" fill="#313139"/>
<circle cx="4" cy="4" r="4" fill="#CF6CD3"/>
<path d="M5.93065 3.05075C5.83819 2.98308 5.68826 2.98308 5.59581 3.05077L3.50488 4.58152L2.40421 3.77572C2.31175 3.70804 2.16182 3.70804 2.06935 3.77572C1.97688 3.84341 1.97688 3.95317 2.06935 4.02087L3.33745 4.94923C3.38368 4.98308 3.44428 5 3.50487 5C3.56545 5 3.62607 4.98307 3.67229 4.94923L5.93065 3.2959C6.02312 3.22821 6.02312 3.11845 5.93065 3.05075Z" fill="white"/>
</svg>