<svg width="24" height="18" viewBox="0 0 24 18" fill="none" xmlns="http://www.w3.org/2000/svg">
<path d="M2.66667 0.333336C1.95942 0.333336 1.28115 0.614287 0.781049 1.11438C0.280952 1.61448 0 2.29276 0 3L0 15C0 15.7072 0.280952 16.3855 0.781049 16.8856C1.28115 17.3857 1.95942 17.6667 2.66667 17.6667H21.3333C22.0406 17.6667 22.7189 17.3857 23.219 16.8856C23.719 16.3855 24 15.7072 24 15V3C24 3 24 0.333336 21.3333 0.333336H2.66667Z" fill="#FFAC33"/>
<path d="M0 3.66666H24V7H0V3.66666Z" fill="#292F33"/>
<path d="M2.66666 9.66667H21.3333V13.6667H2.66666V9.66667Z" fill="#F4F7F9"/>
<path d="M12.6667 13C11.5313 13 11.106 12.1933 11.0207 11.7993C10.656 11.8267 10.3007 12.0013 9.81733 12.3087C9.30733 12.6327 8.72933 13 8 13C7.202 13 6.71733 12.55 6.66667 11.6667C6.66467 11.6293 6.692 11.5413 6.68067 11.5413C5.442 11.5413 4.546 12.7153 4.53733 12.7273C4.48573 12.7981 4.42066 12.8579 4.34586 12.9034C4.27105 12.949 4.188 12.9792 4.10145 12.9926C4.01491 13.0059 3.92659 13.002 3.84156 12.981C3.75654 12.9601 3.67648 12.9226 3.606 12.8707C3.53538 12.8189 3.47565 12.7537 3.43023 12.6788C3.38481 12.604 3.35458 12.5209 3.34127 12.4344C3.32796 12.3478 3.33183 12.2595 3.35266 12.1744C3.37349 12.0894 3.41087 12.0093 3.46267 11.9387C3.514 11.8687 4.74 10.3333 6.66667 10.3333C7.958 10.3333 8.032 11.25 8.052 11.592L8.05667 11.6647C8.38067 11.642 8.71733 11.4287 9.10333 11.1827C9.744 10.776 10.5387 10.2687 11.6033 10.5413C12.184 10.69 12.2747 11.2287 12.3093 11.432C12.318 11.4827 12.3307 11.5587 12.342 11.5827C12.3467 11.5827 12.4393 11.6433 12.7267 11.6693C13.2733 11.7193 13.874 11.4833 14.51 11.234C15.1687 10.9753 15.85 10.7087 16.584 10.7087C18.8433 10.7087 19.762 11.7987 19.8593 11.9227C19.9153 11.9914 19.957 12.0706 19.982 12.1557C20.007 12.2407 20.0148 12.3299 20.0049 12.418C19.995 12.5061 19.9677 12.5914 19.9245 12.6688C19.8812 12.7462 19.823 12.8142 19.7532 12.8688C19.6833 12.9234 19.6033 12.9635 19.5178 12.9869C19.4323 13.0102 19.3429 13.0162 19.255 13.0046C19.1672 12.993 19.0825 12.9639 19.0059 12.9192C18.9294 12.8744 18.8626 12.8149 18.8093 12.744C18.7933 12.726 18.1893 12.0413 16.5847 12.0413C16.1027 12.0413 15.566 12.2513 14.9973 12.474C14.3247 12.738 13.3747 13 12.6667 13Z" fill="#8899A6"/>
</svg>
